<svg width="24" height="24" viewBox="0 0 24 24" fill="none" xmlns="http://www.w3.org/2000/svg">
<path d="M20 8.6664H18V4C18 3.46957 17.7893 2.96086 17.4142 2.58579C17.0391 2.21071 16.5304 2 16 2H4C3.46957 2 2.96086 2.21071 2.58579 2.58579C2.21071 2.96086 2 3.46957 2 4V13.3336C2 13.864 2.21071 14.3727 2.58579 14.7478C2.96086 15.1229 3.46957 15.3336 4 15.3336H4.6664V18C4.66625 18.132 4.70528 18.261 4.77854 18.3708C4.85181 18.4805 4.95601 18.566 5.07794 18.6165C5.19987 18.667 5.33403 18.6801 5.46344 18.6542C5.59284 18.6284 5.71164 18.5647 5.8048 18.4712L8.6672 15.6096V17.3336C8.6672 17.864 8.87791 18.3727 9.25299 18.7478C9.62806 19.1229 10.1368 19.3336 10.6672 19.3336H15.7248L18.196 21.8048C18.2892 21.8983 18.408 21.962 18.5374 21.9878C18.6668 22.0137 18.8009 22.0006 18.9229 21.9501C19.0448 21.8996 19.149 21.8141 19.2223 21.7044C19.2955 21.5946 19.3346 21.4656 19.3344 21.3336V19.3336H20C20.5304 19.3336 21.0391 19.1229 21.4142 18.7478C21.7893 18.3727 22 17.864 22 17.3336V10.6664C22 10.136 21.7893 9.62726 21.4142 9.25219C21.0391 8.87711 20.5304 8.6664 20 8.6664ZM6 16.3904V14.6664C6 14.5789 5.98276 14.4922 5.94927 14.4114C5.91578 14.3305 5.8667 14.2571 5.80482 14.1952C5.74294 14.1333 5.66947 14.0842 5.58862 14.0507C5.50777 14.0172 5.42111 14 5.3336 14H4C3.82332 13.9998 3.65395 13.9295 3.52902 13.8046C3.40409 13.6797 3.33381 13.5103 3.3336 13.3336V4C3.33381 3.82332 3.40409 3.65395 3.52902 3.52902C3.65395 3.40409 3.82332 3.33381 4 3.3336H16C16.1767 3.33381 16.3461 3.40409 16.471 3.52902C16.5959 3.65395 16.6662 3.82332 16.6664 4V13.3336C16.6662 13.5103 16.5959 13.6797 16.471 13.8046C16.3461 13.9295 16.1767 13.9998 16 14H8.6664C8.57887 13.9999 8.49218 14.0171 8.41131 14.0506C8.33044 14.0841 8.257 14.1332 8.1952 14.1952L6 16.3904ZM20.6664 17.3328C20.6664 17.5096 20.5962 17.6792 20.4713 17.8043C20.3463 17.9294 20.1768 17.9998 20 18H18.6672C18.4905 18 18.321 18.0702 18.196 18.1952C18.071 18.3202 18.0008 18.4897 18.0008 18.6664V19.724L16.472 18.1952C16.4101 18.1331 16.3365 18.0839 16.2555 18.0504C16.1745 18.0169 16.0877 17.9998 16 18H10.6664C10.4897 17.9998 10.3203 17.9295 10.1954 17.8046C10.0705 17.6797 10.0002 17.5103 10 17.3336V15.3336H16C16.5304 15.3336 17.0391 15.1229 17.4142 14.7478C17.7893 14.3727 18 13.864 18 13.3336V10H20C20.1767 10.0002 20.3461 10.0705 20.471 10.1954C20.5959 10.3203 20.6662 10.4897 20.6664 10.6664V17.3328Z" fill="#1A1A1A"/>
<path d="M6.89437 9.34147C7.34503 9.34147 7.71037 8.97614 7.71037 8.52547C7.71037 8.07481 7.34503 7.70947 6.89437 7.70947C6.4437 7.70947 6.07837 8.07481 6.07837 8.52547C6.07837 8.97614 6.4437 9.34147 6.89437 9.34147Z" fill="#1A1A1A"/>
<path d="M10.1568 9.34147C10.6075 9.34147 10.9728 8.97614 10.9728 8.52547C10.9728 8.07481 10.6075 7.70947 10.1568 7.70947C9.70616 7.70947 9.34082 8.07481 9.34082 8.52547C9.34082 8.97614 9.70616 9.34147 10.1568 9.34147Z" fill="#1A1A1A"/>
<path d="M13.42 9.34147C13.8707 9.34147 14.236 8.97614 14.236 8.52547C14.236 8.07481 13.8707 7.70947 13.42 7.70947C12.9693 7.70947 12.604 8.07481 12.604 8.52547C12.604 8.97614 12.9693 9.34147 13.42 9.34147Z" fill="#1A1A1A"/>
</svg>
