<svg width="24" height="24" viewBox="0 0 24 24" fill="none" xmlns="http://www.w3.org/2000/svg">
<mask id="mask0_17_19721" style="mask-type:luminance" maskUnits="userSpaceOnUse" x="3" y="3" width="19" height="19">
<path d="M22 3H3V21.8068H22V3Z" fill="white"/>
</mask>
<g mask="url(#mask0_17_19721)">
<path d="M15.8054 18.1454C14.9489 18.1454 13.8587 18.1454 12.4663 18.137C9.42172 18.1269 6.39063 18.1058 6.39063 18.1058C6.18374 18.1042 5.98586 18.0209 5.84012 17.8741C5.69438 17.7272 5.6126 17.5287 5.6126 17.3218V9.95255C5.60252 9.04116 5.77332 8.13683 6.11511 7.2919C6.45691 6.44697 6.96291 5.67823 7.60382 5.03018C8.24473 4.38214 9.00783 3.86766 9.84893 3.51654C10.69 3.16541 11.5924 2.98462 12.5039 2.98462C13.4153 2.98462 14.3177 3.16541 15.1588 3.51654C15.9999 3.86766 16.763 4.38214 17.4039 5.03018C18.0448 5.67823 18.5508 6.44697 18.8926 7.2919C19.2344 8.13683 19.4052 9.04116 19.3951 9.95255V17.3218C19.3952 17.5294 19.3129 17.7284 19.1664 17.8754C18.9453 18.0965 18.8972 18.1454 15.8088 18.1454M7.17625 16.5438C10.982 16.5683 15.997 16.5877 17.8239 16.5666V9.95255C17.8365 9.24544 17.7081 8.54291 17.4462 7.88597C17.1843 7.22903 16.7941 6.63084 16.2985 6.12632C15.8029 5.62181 15.2118 5.22108 14.5596 4.94754C13.9074 4.67399 13.2073 4.5331 12.5001 4.5331C11.7928 4.5331 11.0927 4.67399 10.4405 4.94754C9.78835 5.22108 9.1972 5.62181 8.70159 6.12632C8.20598 6.63084 7.81584 7.22903 7.55395 7.88597C7.29206 8.54291 7.16366 9.24544 7.17625 9.95255V16.5438Z" fill="#1A1A1A"/>
<path d="M20.4338 21.8067H4.56698C4.31494 21.8066 4.06665 21.7457 3.84313 21.6293C3.61962 21.5128 3.42747 21.3442 3.28298 21.1377C3.13849 20.9312 3.04592 20.6929 3.0131 20.443C2.98029 20.1931 3.0082 19.939 3.09447 19.7021L3.43201 18.7697C3.67254 18.1154 4.10799 17.5507 4.67959 17.1517C5.25119 16.7528 5.93142 16.5388 6.62849 16.5386H18.3757C19.0714 16.5404 19.7499 16.7552 20.32 17.1541C20.89 17.5529 21.3244 18.1167 21.5645 18.7697L21.9021 19.7021C21.9886 19.939 22.0166 20.1931 21.9839 20.4431C21.9512 20.6931 21.8586 20.9315 21.7141 21.138C21.5696 21.3446 21.3773 21.5132 21.1537 21.6296C20.9301 21.746 20.6817 21.8068 20.4296 21.8067M6.62849 18.1056C6.25365 18.1064 5.88805 18.222 5.58089 18.4368C5.27372 18.6516 5.03974 18.9554 4.91042 19.3072L4.57289 20.2397H20.4363L20.0929 19.3072C19.9636 18.9555 19.7298 18.6519 19.4228 18.437C19.1158 18.2222 18.7503 18.1065 18.3757 18.1056H6.62849Z" fill="#1A1A1A"/>
<path d="M15.9226 10.4765C15.8194 10.4767 15.7172 10.4566 15.6219 10.4172C15.5265 10.3779 15.4399 10.3201 15.3669 10.2472C15.2939 10.1743 15.236 10.0877 15.1966 9.99238C15.1571 9.89707 15.1369 9.7949 15.137 9.69174C15.1401 9.09624 14.907 8.52379 14.4888 8.09987C14.0706 7.67595 13.5013 7.43514 12.9058 7.43023C12.8008 7.43368 12.6961 7.41597 12.598 7.37814C12.5 7.34032 12.4105 7.28316 12.335 7.21007C12.2594 7.13697 12.1994 7.04943 12.1583 6.95265C12.1173 6.85587 12.0962 6.75184 12.0962 6.64672C12.0962 6.54161 12.1173 6.43757 12.1583 6.3408C12.1994 6.24402 12.2594 6.15648 12.335 6.08338C12.4105 6.01029 12.5 5.95313 12.598 5.9153C12.6961 5.87748 12.8008 5.85977 12.9058 5.86321C13.9168 5.8688 14.8843 6.27506 15.5961 6.99291C16.3079 7.71077 16.7061 8.68163 16.7031 9.69258C16.7031 9.90049 16.6205 10.0999 16.4735 10.2469C16.3265 10.3939 16.1271 10.4765 15.9192 10.4765" fill="#1A1A1A"/>
</g>
</svg>
