<svg width="24" height="24" viewBox="0 0 24 24" fill="none" xmlns="http://www.w3.org/2000/svg">
<path d="M5.61523 21.9993C5.12509 21.968 4.66699 21.7419 4.3406 21.3702C4.01422 20.9985 3.84597 20.5113 3.87245 20.0147V12.6326H2.74684C2.36169 12.6183 1.99164 12.4772 1.69281 12.2307C1.39398 11.9842 1.18267 11.6457 1.09091 11.2666C0.973363 10.8754 0.969732 10.4581 1.08045 10.0649C1.19118 9.67165 1.41155 9.3191 1.71515 9.04953L10.8697 1.38638C11.1544 1.13916 11.5164 1.00225 11.8914 1.00003C12.2664 0.997801 12.63 1.1304 12.9176 1.37422L22.2713 9.03737C22.5782 9.30466 22.8021 9.65633 22.9158 10.0498C23.0294 10.4433 23.028 10.8617 22.9117 11.2544C22.8217 11.6358 22.6107 11.9767 22.3112 12.2251C22.0116 12.4735 21.6399 12.6156 21.253 12.6297H19.9184V20.0154C19.9448 20.5121 19.7766 20.9992 19.4502 21.3709C19.1238 21.7426 18.6657 21.9687 18.1756 22L5.61523 21.9993ZM2.11907 10.8797L3.67261 10.8854C4.16136 10.9192 4.61732 11.1466 4.94187 11.5182C5.26643 11.8899 5.43348 12.376 5.40692 12.8714V20.2521H18.3839V12.8714C18.3574 12.3748 18.5257 11.8876 18.8521 11.5159C19.1784 11.1443 19.6365 10.9182 20.1267 10.8868H21.8991L11.9 2.69229L2.11907 10.8797Z" fill="#1A1A1A"/>
</svg>
