<svg width="24" height="24" viewBox="0 0 24 24" fill="none" xmlns="http://www.w3.org/2000/svg">
<path d="M4.14839 2H15.1275C15.6966 2.00144 16.242 2.22833 16.6441 2.631C17.0463 3.03367 17.2725 3.57929 17.2732 4.14839V6.72681H19.8516C20.4212 6.72753 20.9672 6.95411 21.37 7.35685C21.7727 7.7596 21.9993 8.30563 22 8.8752V19.0513C21.9993 19.8334 21.6883 20.5832 21.1353 21.1362C20.5823 21.6892 19.8324 22.0002 19.0504 22.0009H5.71192C5.22446 22.0009 4.74178 21.9049 4.29143 21.7184C3.84108 21.5318 3.43188 21.2584 3.0872 20.9137C2.74251 20.569 2.46909 20.1598 2.28255 19.7095C2.09601 19.2591 2 18.7764 2 18.289L2 4.14839C2.00072 3.57882 2.2273 3.03279 2.63004 2.63004C3.03279 2.2273 3.57882 2.00072 4.14839 2ZM20.8312 19.0504V8.8752C20.8312 8.61612 20.7283 8.36765 20.5451 8.18445C20.3619 8.00125 20.1134 7.89833 19.8543 7.89833H17.2732V19.0504C17.2732 19.5217 17.4604 19.9738 17.7937 20.307C18.127 20.6403 18.579 20.8276 19.0504 20.8276C19.5217 20.8276 19.9738 20.6403 20.307 20.307C20.6403 19.9738 20.8276 19.5217 20.8276 19.0504H20.8312ZM3.17695 18.289C3.17886 18.9607 3.44655 19.6044 3.92154 20.0794C4.39652 20.5544 5.04019 20.822 5.71192 20.824H16.6992C16.3109 20.3129 16.101 19.6886 16.1017 19.0468V4.14839C16.1017 3.88977 15.9991 3.64171 15.8165 3.45859C15.6339 3.27547 15.3861 3.17224 15.1275 3.17152H4.14839C3.8893 3.17152 3.64083 3.27444 3.45764 3.45764C3.27444 3.64083 3.17152 3.8893 3.17152 4.14839L3.17695 18.289Z" fill="#1A1A1A" stroke="#1A1A1A" stroke-width="0.5"/>
<path d="M13.9334 8.67958H8.46418C8.30883 8.67958 8.15983 8.61786 8.04998 8.508C7.94013 8.39815 7.87842 8.24917 7.87842 8.09382C7.87842 7.93847 7.94013 7.78947 8.04998 7.67962C8.15983 7.56977 8.30883 7.50806 8.46418 7.50806H13.9334C14.0887 7.50806 14.2377 7.56977 14.3476 7.67962C14.4574 7.78947 14.5191 7.93847 14.5191 8.09382C14.5191 8.24917 14.4574 8.39815 14.3476 8.508C14.2377 8.61786 14.0887 8.67958 13.9334 8.67958Z" fill="#1A1A1A" stroke="#1A1A1A" stroke-width="0.5"/>
<path d="M5.33894 11.1848H13.9325C14.0878 11.1848 14.2368 11.2465 14.3467 11.3564C14.4565 11.4662 14.5182 11.6152 14.5182 11.7706C14.5182 11.9259 14.4565 12.0749 14.3467 12.1848C14.2368 12.2946 14.0878 12.3563 13.9325 12.3563H5.33894C5.18358 12.3563 5.03459 12.2946 4.92474 12.1848C4.81488 12.0749 4.75317 11.9259 4.75317 11.7706C4.75317 11.6152 4.81488 11.4662 4.92474 11.3564C5.03459 11.2465 5.18358 11.1848 5.33894 11.1848Z" fill="#1A1A1A" stroke="#1A1A1A" stroke-width="0.5"/>
<path d="M5.33894 15.3203H13.9325C14.0878 15.3203 14.2368 15.382 14.3467 15.4919C14.4565 15.6017 14.5182 15.7507 14.5182 15.9061C14.5182 16.0614 14.4565 16.2104 14.3467 16.3203C14.2368 16.4301 14.0878 16.4918 13.9325 16.4918H5.33894C5.18358 16.4918 5.03459 16.4301 4.92474 16.3203C4.81488 16.2104 4.75317 16.0614 4.75317 15.9061C4.75317 15.7507 4.81488 15.6017 4.92474 15.4919C5.03459 15.382 5.18358 15.3203 5.33894 15.3203Z" fill="#1A1A1A" stroke="#1A1A1A" stroke-width="0.5"/>
</svg>
