<svg width="213" height="60" viewBox="0 0 213 60" fill="none" xmlns="http://www.w3.org/2000/svg">
<path d="M0 15.3992H11.5333V50.5844H35.0915V59.1486H7.43566C5.46367 59.1484 3.5725 58.3649 2.17809 56.9705C0.78368 55.5761 0.000214056 53.6849 0 51.7129L0 15.3992Z" fill="#90C31E"/>
<path d="M70.9152 15.3994V32.4617H52.8157V15.3994H41.2832V59.1529H52.8157V38.3256C53.5123 39.1713 54.3875 39.8522 55.3785 40.3195C56.3694 40.7868 57.4516 41.0289 58.5472 41.0283H70.9128V59.1489H82.4461V15.3954L70.9152 15.3994Z" fill="#90C31E"/>
<path d="M112.572 39.1802V34.3197H92.6548V54.9282C92.6548 56.0474 93.0993 57.1207 93.8906 57.9122C94.6819 58.7036 95.7552 59.1484 96.8743 59.1486H112.57V54.2881H99.2017V47.3319C99.5975 47.8118 100.095 48.1982 100.657 48.4634C101.22 48.7286 101.834 48.8659 102.457 48.8657H111.399V44.006H99.2017V39.1802H112.572Z" fill="#0055A2"/>
<path d="M149.07 39.1843V44.0036H159.396C160.514 44.0036 161.587 44.448 162.379 45.239C163.17 46.03 163.614 47.1028 163.614 48.2216V54.9267C163.614 56.0465 163.169 57.1204 162.377 57.9121C161.585 58.7038 160.512 59.1486 159.392 59.1486H146.937C145.818 59.1486 144.745 58.704 143.953 57.9125C143.162 57.1211 142.717 56.0476 142.717 54.9283V54.2825H157.072V48.8674H146.748C145.628 48.8672 144.554 48.4222 143.762 47.6303C142.97 46.8384 142.526 45.7644 142.526 44.6446V38.5425C142.526 37.4228 142.97 36.3489 143.762 35.5571C144.554 34.7654 145.628 34.3206 146.748 34.3206H162.819V39.1843H149.07Z" fill="#0055A2"/>
<path d="M133.38 59.2899L131.469 57.2346C129.313 58.9813 126.598 59.8906 123.825 59.7953C118.92 59.7953 115.207 57.0546 115.207 52.5832C115.207 49.3025 117.225 47.3191 120.399 45.4438C118.704 43.5694 117.695 42.1268 117.695 40.1441C117.695 35.9973 121.228 33.5448 125.735 33.5448C130.094 33.5448 132.983 36.1054 132.983 39.7106C132.983 42.6313 130.965 44.3976 128.368 46.0565L128.296 46.0928L131.253 49.2662L134.32 44.7237H140.343L135.183 52.8367C135.107 52.9738 135.023 53.1062 134.931 53.2331L140.519 59.2875L133.38 59.2899ZM128.116 53.7013L123.757 49.0143C122.242 50.0234 121.341 50.9614 121.341 52.584C121.341 54.2066 122.675 55.2165 124.442 55.2165C125.128 55.244 125.812 55.123 126.447 54.8616C127.081 54.6002 127.652 54.2047 128.12 53.7021M123.324 39.6396C123.324 40.7213 124.009 41.4067 124.947 42.4521L125.27 42.8121C126.784 42.0194 127.866 41.0459 127.866 39.6751C127.86 39.3959 127.796 39.1211 127.678 38.8681C127.559 38.6152 127.389 38.3898 127.179 38.2064C126.968 38.023 126.722 37.8857 126.455 37.8034C126.188 37.721 125.907 37.6953 125.63 37.728C124.368 37.728 123.322 38.4489 123.322 39.6388" fill="#0055A2"/>
<path d="M168.526 0C168.174 2.96883e-05 167.837 0.139702 167.589 0.388292L146.266 21.7153C145.895 22.0861 145.642 22.5586 145.54 23.0729C145.437 23.5873 145.49 24.1205 145.69 24.605C145.891 25.0896 146.231 25.5038 146.667 25.7952C147.103 26.0867 147.616 26.2423 148.14 26.2424L179.25 26.2529L179.236 26.2392C178.253 25.2559 177.473 24.0885 176.941 22.8037C176.408 21.5188 176.134 20.1417 176.134 18.751C176.134 17.3603 176.408 15.9832 176.941 14.6984C177.473 13.4136 178.253 12.2462 179.236 11.2629L190.495 0H168.526Z" fill="url(#paint0_linear_60_14365)"/>
<path d="M179.248 26.2642C180.231 27.2476 181.011 28.415 181.543 29.6998C182.076 30.9846 182.349 32.3617 182.349 33.7524C182.349 35.143 182.076 36.5201 181.543 37.8049C181.011 39.0897 180.231 40.2571 179.248 41.2405L167.988 52.4993H189.958C190.132 52.4994 190.304 52.4652 190.465 52.3986C190.626 52.3319 190.772 52.2342 190.896 52.111L212.218 30.7881C212.462 30.5494 212.657 30.2648 212.791 29.9507C212.926 29.6365 212.997 29.2989 213 28.9572V28.9056C212.999 28.5576 212.93 28.2131 212.796 27.8919C212.663 27.5706 212.467 27.2789 212.22 27.0333C211.974 26.7877 211.681 26.5931 211.359 26.4606C211.038 26.3281 210.693 26.2602 210.345 26.261L179.236 26.2505L179.248 26.2642Z" fill="url(#paint1_linear_60_14365)"/>
<defs>
<linearGradient id="paint0_linear_60_14365" x1="190.495" y1="-1.51629e-06" x2="168.397" y2="38.0411" gradientUnits="userSpaceOnUse">
<stop stop-color="#06B0CB"/>
<stop offset="1" stop-color="#6FB92E"/>
</linearGradient>
<linearGradient id="paint1_linear_60_14365" x1="213" y1="27.8254" x2="190.038" y2="65.4792" gradientUnits="userSpaceOnUse">
<stop stop-color="#009FE7"/>
<stop offset="1" stop-color="#0057A4"/>
</linearGradient>
</defs>
</svg>
