<svg width="100" height="27" viewBox="0 0 100 27" fill="none" xmlns="http://www.w3.org/2000/svg">
<mask id="mask0_60_14384" style="mask-type:luminance" maskUnits="userSpaceOnUse" x="0" y="0" width="100" height="27">
<path d="M100 0H0V27H100V0Z" fill="white"/>
</mask>
<g mask="url(#mask0_60_14384)">
<path d="M0 0H7.04921V21.3964H21.4476V26.6049H4.54427C3.33973 26.6046 2.18453 26.1286 1.33247 25.2814C0.480399 24.4343 0.00114891 23.2852 0 22.0866V0Z" fill="white"/>
<path d="M43.3428 0V10.3764H32.2799V0H25.2316V26.6066H32.2799V13.9413C32.7063 14.455 33.2416 14.8684 33.8476 15.1518C34.4535 15.4352 35.115 15.5816 35.7846 15.5805H43.3419V26.6066H50.3911V0H43.3428Z" fill="white"/>
<path d="M68.8031 14.4598V11.5074H56.6287V24.0364C56.6287 24.717 56.9003 25.3697 57.3839 25.851C57.8674 26.3324 58.5233 26.6029 59.2073 26.6031H68.8005V23.6516H60.6284V19.4241C60.8704 19.7158 61.1742 19.9506 61.5181 20.1116C61.8619 20.2727 62.2374 20.3561 62.6175 20.3559H68.08V17.3932H60.6232V14.4598H68.8031Z" fill="white"/>
<path d="M91.11 14.4658V17.3992H97.4213C98.1046 17.3994 98.7599 17.6695 99.2432 18.1501C99.7266 18.6307 99.9984 19.2825 99.9991 19.9625V24.0398C99.9989 24.7209 99.7268 25.374 99.2428 25.8554C98.7587 26.3369 98.1023 26.6074 97.4179 26.6074H89.8042C89.4655 26.6074 89.13 26.541 88.8171 26.412C88.5041 26.283 88.2198 26.094 87.9802 25.8556C87.7407 25.6173 87.5507 25.3344 87.4211 25.0229C87.2914 24.7115 87.2247 24.3778 87.2247 24.0407V23.649H95.9985V20.355H89.6898C89.3508 20.355 89.0152 20.2886 88.7021 20.1595C88.389 20.0304 88.1045 19.8412 87.8649 19.6027C87.6252 19.3642 87.4352 19.081 87.3056 18.7694C87.1759 18.4578 87.1093 18.1238 87.1094 17.7866V14.0767C87.1094 13.3958 87.3812 12.7427 87.8651 12.2612C88.3491 11.7797 89.0054 11.5092 89.6898 11.5092H99.5136V14.4667L91.11 14.4658Z" fill="white"/>
<path d="M81.522 26.6929L80.3532 25.4428C79.0345 26.5035 77.3753 27.0549 75.6806 26.9957C72.6832 26.9957 70.4141 25.3289 70.4141 22.6095C70.4141 20.6139 71.6479 19.4078 73.5875 18.2681C72.5514 17.1284 71.9349 16.2509 71.9349 15.0448C71.9349 12.523 74.0947 11.0312 76.8494 11.0312C79.5156 11.0312 81.2792 12.5842 81.2792 14.7808C81.2792 16.5572 80.0454 17.6279 78.4587 18.6399L78.4144 18.6615L80.2214 20.5915L82.0943 17.8306H85.7749L82.6232 22.7648C82.5767 22.8483 82.5252 22.929 82.4688 23.0063L85.8842 26.6903L81.522 26.6929ZM78.3043 23.2945L75.6372 20.4474C74.7112 21.0617 74.1632 21.6311 74.1632 22.6181C74.1721 22.8506 74.2295 23.0787 74.3317 23.2879C74.4339 23.4972 74.5787 23.683 74.757 23.8336C74.9352 23.9842 75.143 24.0962 75.367 24.1626C75.5911 24.229 75.8267 24.2484 76.0586 24.2194C76.478 24.236 76.896 24.1623 77.284 24.0033C77.6721 23.8442 78.021 23.6036 78.3069 23.2979M75.3754 14.7454C75.3754 15.4028 75.7942 15.8204 76.3673 16.4563L76.5659 16.6754C77.491 16.1931 78.1526 15.6013 78.1526 14.7679C78.1491 14.5981 78.1099 14.431 78.0376 14.2772C77.9653 14.1234 77.8614 13.9864 77.7327 13.8749C77.6041 13.7635 77.4534 13.68 77.2903 13.6299C77.1273 13.5799 76.9555 13.5643 76.7861 13.5841C76.6159 13.5631 76.4432 13.5769 76.2786 13.6247C76.114 13.6725 75.961 13.7534 75.8289 13.8622C75.6969 13.9711 75.5886 14.1057 75.5107 14.2577C75.4329 14.4097 75.3871 14.576 75.3763 14.7463" fill="white"/>
</g>
</svg>
