<svg width="24" height="24" viewBox="0 0 24 24" fill="none" xmlns="http://www.w3.org/2000/svg">
    <g clip-path="url(#clip0_681_5523)">
        <path fill-rule="evenodd" clip-rule="evenodd" d="M7.49225 9.26686C7.33312 9.10097 7.1146 9.00508 6.88478 9.0003C6.65495 8.99552 6.43264 9.08223 6.26675 9.24136C6.10085 9.40049 6.00497 9.619 6.00019 9.84883C5.99541 10.0787 6.08212 10.301 6.24125 10.4669L10.8712 15.3089L10.8892 15.3269C10.9696 15.4073 11.065 15.4711 11.17 15.5146C11.275 15.5582 11.3876 15.5806 11.5012 15.5806C11.6149 15.5806 11.7275 15.5582 11.8325 15.5146C11.9375 15.4711 12.0329 15.4073 12.1132 15.3269L12.1312 15.3089L16.7612 10.4669C16.9204 10.301 17.0071 10.0787 17.0023 9.84883C16.9975 9.619 16.9016 9.40049 16.7357 9.24136C16.5699 9.08223 16.3475 8.99552 16.1177 9.0003C15.8879 9.00508 15.6694 9.10097 15.5102 9.26686L11.5012 13.4589L7.49225 9.26686Z" fill="#6B7280"/>
    </g>
    <defs>
        <clipPath id="clip0_681_5523">
            <rect width="11" height="6.58045" fill="white" transform="translate(6 9)"/>
        </clipPath>
    </defs>
</svg>
