<svg width="24" height="24" viewBox="0 0 24 24" fill="none" xmlns="http://www.w3.org/2000/svg">
<path d="M21.5015 14.8775L19.4508 12.824V10.1034C19.4487 8.22287 18.7491 6.41002 17.4874 5.01566C16.2256 3.62131 14.4915 2.74459 12.6206 2.5552V1H11.1034V2.5552C9.23292 2.74522 7.49944 3.62221 6.23826 5.0165C4.97708 6.41079 4.27785 8.22329 4.27584 10.1034V12.824L2.22243 14.8775C2.08013 15.0196 2.00013 15.2125 2 15.4136V17.6895C2 17.8907 2.07992 18.0836 2.22219 18.2259C2.36446 18.3682 2.55742 18.4481 2.75861 18.4481H8.0689V19.0376C8.0525 20.0001 8.39181 20.9347 9.02182 21.6625C9.65183 22.3903 10.5282 22.86 11.4831 22.9817C12.0103 23.0337 12.5426 22.9747 13.0456 22.8087C13.5487 22.6427 14.0115 22.3733 14.4042 22.0178C14.797 21.6623 15.111 21.2285 15.3261 20.7444C15.5412 20.2602 15.6526 19.7365 15.6532 19.2067V18.4508H20.9635C21.1647 18.4508 21.3577 18.3709 21.4999 18.2286C21.6422 18.0863 21.7221 17.8934 21.7221 17.6922V15.4136C21.722 15.2125 21.642 15.0196 21.4997 14.8775H21.5015ZM14.1378 19.2067C14.1378 19.8103 13.898 20.3892 13.4712 20.816C13.0444 21.2428 12.4656 21.4825 11.862 21.4825C11.2584 21.4825 10.6795 21.2428 10.2527 20.816C9.8259 20.3892 9.58613 19.8103 9.58613 19.2067V18.4508H14.1378V19.2067ZM20.2067 16.9309H3.51723V15.7274L5.57063 13.674C5.71293 13.5318 5.79294 13.339 5.79306 13.1378V10.1034C5.79306 8.49378 6.43246 6.95013 7.5706 5.81199C8.70874 4.67385 10.2524 4.03445 11.862 4.03445C13.4715 4.03445 15.0152 4.67385 16.1533 5.81199C17.2915 6.95013 17.9309 8.49378 17.9309 10.1034V13.1378C17.931 13.339 18.011 13.5318 18.1533 13.674L20.2067 15.7274V16.9309Z" fill="#1A1A1A"/>
</svg>
