<svg width="24" height="24" viewBox="0 0 24 24" fill="none" xmlns="http://www.w3.org/2000/svg">
<g clip-path="url(#clip0_553_16409)">
<path d="M11.7 23.4001C17.8303 23.4001 22.8 18.4304 22.8 12.3001C22.8 6.16972 17.8303 1.20007 11.7 1.20007C5.56962 1.20007 0.599976 6.16972 0.599976 12.3001C0.599976 18.4304 5.56962 23.4001 11.7 23.4001Z" fill="#90C31E"/>
<path d="M14.4351 9.35445L10.0018 13.7877C9.57373 14.2158 9.57373 14.9099 10.0018 15.338C10.4299 15.7661 11.124 15.7661 11.5521 15.338L15.9854 10.9047C16.4135 10.4766 16.4135 9.78255 15.9854 9.35445C15.5573 8.92635 14.8632 8.92635 14.4351 9.35445Z" fill="white"/>
<path d="M11.6473 13.5019L9.25042 11.105C8.7697 10.6243 7.99031 10.6243 7.50959 11.105C7.02887 11.5858 7.02887 12.3651 7.50959 12.8459L9.90648 15.2428C10.3872 15.7235 11.1666 15.7235 11.6473 15.2428C12.128 14.762 12.128 13.9826 11.6473 13.5019Z" fill="white"/>
</g>
<defs>
<clipPath id="clip0_553_16409">
<rect width="23" height="23" fill="white" transform="translate(0.599976 0.800049)"/>
</clipPath>
</defs>
</svg>
