<svg width="24" height="24" viewBox="0 0 24 24" fill="none" xmlns="http://www.w3.org/2000/svg">
<g clip-path="url(#clip0_778_4867)">
<path d="M11.7001 23.3997C17.8305 23.3997 22.8001 18.4301 22.8001 12.2997C22.8001 6.16935 17.8305 1.19971 11.7001 1.19971C5.56974 1.19971 0.600098 6.16935 0.600098 12.2997C0.600098 18.4301 5.56974 23.3997 11.7001 23.3997Z" fill="#666666" fill-opacity="0.2"/>
<path d="M14.435 9.35409L10.0017 13.7874C9.57361 14.2155 9.57361 14.9095 10.0017 15.3376C10.4298 15.7657 11.1239 15.7657 11.552 15.3376L15.9853 10.9044C16.4134 10.4763 16.4134 9.78219 15.9853 9.35409C15.5572 8.92598 14.8631 8.92598 14.435 9.35409Z" fill="white"/>
<path d="M11.6472 13.5017L9.2503 11.1048C8.76958 10.6241 7.99018 10.6241 7.50947 11.1048C7.02875 11.5855 7.02875 12.3649 7.50947 12.8456L9.90636 15.2425C10.3871 15.7232 11.1665 15.7232 11.6472 15.2425C12.1279 14.7618 12.1279 13.9824 11.6472 13.5017Z" fill="white"/>
</g>
<defs>
<clipPath id="clip0_778_4867">
<rect width="23" height="23" fill="white" transform="translate(0.600098 0.799805)"/>
</clipPath>
</defs>
</svg>
