<svg width="24" height="24" viewBox="0 0 24 24" fill="none" xmlns="http://www.w3.org/2000/svg">
<path d="M15.1217 7.10026L8.59167 13.7643C8.29993 14.056 8.13603 14.4517 8.13603 14.8643C8.13603 15.2768 8.29993 15.6725 8.59167 15.9643C8.88341 16.256 9.27909 16.4199 9.69167 16.4199C10.1042 16.4199 10.4999 16.256 10.7917 15.9643L17.3147 9.30026C17.8968 8.71771 18.2237 7.92777 18.2234 7.1042C18.2231 6.28063 17.8957 5.49091 17.3132 4.90876C16.7306 4.32661 15.9407 3.99972 15.1171 4C14.2935 4.00028 13.5038 4.32771 12.9217 4.91026L6.42167 11.5463C5.97689 11.9759 5.62212 12.4897 5.37806 13.0579C5.134 13.6261 5.00554 14.2372 5.00018 14.8555C4.99481 15.4738 5.11264 16.0871 5.3468 16.6594C5.58096 17.2317 5.92675 17.7517 6.364 18.1889C6.80126 18.6262 7.32121 18.972 7.89353 19.2061C8.46586 19.4403 9.07908 19.5581 9.69743 19.5528C10.3158 19.5474 10.9269 19.4189 11.495 19.1749C12.0632 18.9308 12.5771 18.576 13.0067 18.1313L19.5067 11.4943" stroke="#6B7280" stroke-width="1.25" stroke-linecap="round" stroke-linejoin="round"/>
</svg>
