<svg width="24" height="24" viewBox="0 0 24 24" fill="none" xmlns="http://www.w3.org/2000/svg">
<g clip-path="url(#clip0_30_1492)">
<path d="M6.49921 6.50079C6.58942 6.41031 6.69658 6.3385 6.81457 6.28947C6.93255 6.24044 7.05905 6.21515 7.18681 6.21505C7.31458 6.21496 7.44111 6.24005 7.55917 6.2889C7.67723 6.33775 7.7845 6.40939 7.87485 6.49974L12 10.6249L16.1252 6.49974C16.2154 6.40946 16.3226 6.33785 16.4406 6.28899C16.5585 6.24013 16.6849 6.21498 16.8126 6.21498C16.9403 6.21498 17.0667 6.24013 17.1847 6.28899C17.3026 6.33785 17.4098 6.40946 17.5001 6.49974C17.5904 6.59002 17.662 6.69719 17.7108 6.81515C17.7597 6.93311 17.7848 7.05953 17.7848 7.1872C17.7848 7.31488 17.7597 7.4413 17.7108 7.55926C17.662 7.67722 17.5904 7.78439 17.5001 7.87467L13.3749 11.9998L17.5001 16.125C17.6824 16.3073 17.7848 16.5546 17.7848 16.8124C17.7848 17.0703 17.6824 17.3176 17.5001 17.4999C17.3178 17.6822 17.0705 17.7847 16.8126 17.7847C16.5548 17.7847 16.3075 17.6822 16.1252 17.4999L12.0003 13.3751L7.8752 17.5003C7.69287 17.6826 7.44558 17.785 7.18773 17.785C6.92988 17.785 6.68259 17.6826 6.50026 17.5003C6.31794 17.3179 6.2155 17.0706 6.2155 16.8128C6.2155 16.5549 6.31793 16.3077 6.50026 16.1253L10.6254 12.0002L6.50026 7.87502C6.31795 7.6929 6.21542 7.44582 6.21523 7.18812C6.21503 6.93042 6.31718 6.68319 6.49921 6.50079Z" fill="black"/>
</g>
<defs>
<clipPath id="clip0_30_1492">
<rect width="24" height="24" fill="white"/>
</clipPath>
</defs>
</svg>
