<svg width="24" height="24" viewBox="0 0 24 24" fill="none" xmlns="http://www.w3.org/2000/svg">
<path d="M7.37593 7.62419C7.5209 7.47923 7.71751 7.39779 7.92252 7.39779C8.12754 7.39779 8.32415 7.47923 8.46912 7.62419L11.7508 10.9059L15.0311 7.62561C15.1761 7.48055 15.3729 7.39905 15.578 7.39905C15.7832 7.39905 15.9799 7.48055 16.125 7.62561C16.27 7.77067 16.3515 7.96741 16.3515 8.17255C16.3515 8.3777 16.27 8.57444 16.125 8.7195L12.8447 11.9998L16.125 15.28C16.27 15.4251 16.3515 15.6218 16.3515 15.827C16.3515 16.0321 16.27 16.2289 16.125 16.3739C15.9799 16.519 15.7832 16.6005 15.578 16.6005C15.3729 16.6005 15.1761 16.519 15.0311 16.3739L11.7508 13.0937L8.46912 16.3753C8.32406 16.5204 8.12731 16.6019 7.92217 16.6019C7.71702 16.6019 7.52028 16.5204 7.37522 16.3753C7.23016 16.2303 7.14867 16.0335 7.14867 15.8284C7.14867 15.6233 7.23016 15.4265 7.37522 15.2815L10.6569 11.9998L7.37522 8.71808C7.30338 8.64625 7.24641 8.56095 7.20756 8.46708C7.16872 8.3732 7.14875 8.27259 7.14881 8.17099C7.14888 8.0694 7.16898 7.96881 7.20795 7.87499C7.24692 7.78116 7.304 7.69594 7.37593 7.62419Z" fill="#6B7280"/>
</svg>
