<svg width="24" height="24" viewBox="0 0 24 24" fill="none" xmlns="http://www.w3.org/2000/svg">
<path d="M13.036 18.4188L17.173 14.8548C17.515 14.5548 17.719 14.3828 17.834 14.2638L17.843 14.2738C18.4125 13.7839 18.8703 13.1775 19.1855 12.4956C19.5007 11.8136 19.6659 11.072 19.67 10.3208C19.6447 8.88712 19.052 7.52197 18.0217 6.52469C16.9914 5.52741 15.6077 4.97938 14.174 5.00079H9.5C8.06558 4.97832 6.68085 5.52586 5.6497 6.52326C4.61856 7.52066 4.02525 8.88642 4 10.3208C4.02525 11.7552 4.61856 13.1209 5.6497 14.1183C6.68085 15.1157 8.06558 15.6633 9.5 15.6408H13.04L13.036 18.4188ZM17.25 13.9878C16.674 14.4878 14.81 16.0878 13.65 17.0878V15.0428H9.5C8.22667 15.0629 6.99739 14.5769 6.08193 13.6917C5.16647 12.8064 4.63962 11.5941 4.617 10.3208C4.64014 9.04785 5.16722 7.83606 6.08262 6.95121C6.99803 6.06637 8.22701 5.58072 9.5 5.60079H14.178C15.4496 5.58285 16.6765 6.06945 17.5902 6.95407C18.5039 7.83869 19.0299 9.04926 19.053 10.3208C19.0493 10.9877 18.9027 11.646 18.6228 12.2513C18.343 12.8567 17.9366 13.3949 17.431 13.8298L17.25 13.9878Z" stroke="#6B7280"/>
</svg>
