<svg width="24" height="24" viewBox="0 0 24 24" fill="none" xmlns="http://www.w3.org/2000/svg">
<mask id="mask0_17_19731" style="mask-type:luminance" maskUnits="userSpaceOnUse" x="3" y="1" width="18" height="22">
<path d="M20.7743 1H3V23H20.7743V1Z" fill="white"/>
</mask>
<g mask="url(#mask0_17_19731)">
<path d="M20.7726 6.91523C20.771 6.81044 20.7501 6.70685 20.711 6.60961L20.7014 6.58704C20.6836 6.54673 20.6627 6.50783 20.6389 6.4707L20.6215 6.44291C20.5923 6.39977 20.5591 6.35937 20.5226 6.32223L15.4521 1.25092C15.4159 1.21546 15.3767 1.18321 15.3349 1.15454L15.2941 1.12937C15.2633 1.11033 15.2315 1.09322 15.1986 1.07814L15.1552 1.05991C15.0608 1.02255 14.9606 1.00226 14.8591 1H5.54825C4.87262 1.00069 4.22486 1.26939 3.74713 1.74713C3.26939 2.22486 3.00069 2.87262 3 3.54825L3 20.4483C3.00069 21.1239 3.26939 21.7717 3.74713 22.2494C4.22486 22.7271 4.87262 22.9958 5.54825 22.9965H18.2244C18.9002 22.9961 19.5483 22.7275 20.0263 22.2498C20.5044 21.772 20.7734 21.1241 20.7743 20.4483V6.92912C20.7743 6.92391 20.7743 6.91957 20.7743 6.91523M19.0622 20.4483C19.062 20.669 18.9742 20.8807 18.8181 21.0368C18.662 21.1929 18.4503 21.2807 18.2296 21.2809H5.54825C5.32749 21.2807 5.11584 21.1929 4.95974 21.0368C4.80364 20.8807 4.71585 20.669 4.71562 20.4483V3.54825C4.71562 3.32742 4.80334 3.11564 4.95949 2.95949C5.11564 2.80334 5.32742 2.71562 5.54825 2.71562H13.9865V5.23868C13.9872 5.91446 14.256 6.56235 14.734 7.04011C15.2119 7.51787 15.8599 7.78647 16.5357 7.78693H19.0622V20.4483ZM15.703 5.23868V3.9294L17.8467 6.07045H16.5357C16.3149 6.07022 16.1033 5.98242 15.9472 5.82632C15.7911 5.67022 15.7033 5.45944 15.703 5.23868Z" fill="#FF4343"/>
<path d="M15.7864 9.04062H7.82044C7.69676 9.0217 7.57046 9.02974 7.45017 9.06418C7.32989 9.09861 7.21847 9.15864 7.12354 9.24015C7.02862 9.32166 6.95243 9.42272 6.9002 9.53642C6.84796 9.65011 6.82092 9.77375 6.82092 9.89887C6.82092 10.024 6.84796 10.1476 6.9002 10.2613C6.95243 10.375 7.02862 10.4761 7.12354 10.5576C7.21847 10.6391 7.32989 10.6991 7.45017 10.7336C7.57046 10.768 7.69676 10.776 7.82044 10.7571H15.7864C15.9101 10.776 16.0364 10.768 16.1567 10.7336C16.277 10.6991 16.3884 10.6391 16.4833 10.5576C16.5783 10.4761 16.6544 10.375 16.7067 10.2613C16.7589 10.1476 16.7859 10.024 16.7859 9.89887C16.7859 9.77375 16.7589 9.65011 16.7067 9.53642C16.6544 9.42272 16.5783 9.32166 16.4833 9.24015C16.3884 9.15864 16.277 9.09861 16.1567 9.06418C16.0364 9.02974 15.9101 9.0217 15.7864 9.04062Z" fill="#FF4343"/>
<path d="M15.7864 12.7497H7.82044C7.69676 12.7308 7.57046 12.7388 7.45017 12.7733C7.32989 12.8077 7.21847 12.8677 7.12354 12.9493C7.02862 13.0308 6.95243 13.1318 6.9002 13.2455C6.84796 13.3592 6.82092 13.4829 6.82092 13.608C6.82092 13.7331 6.84796 13.8567 6.9002 13.9704C6.95243 14.0841 7.02862 14.1852 7.12354 14.2667C7.21847 14.3482 7.32989 14.4082 7.45017 14.4427C7.57046 14.4771 7.69676 14.4851 7.82044 14.4662H15.7864C15.9101 14.4851 16.0364 14.4771 16.1567 14.4427C16.277 14.4082 16.3884 14.3482 16.4833 14.2667C16.5783 14.1852 16.6544 14.0841 16.7067 13.9704C16.7589 13.8567 16.7859 13.7331 16.7859 13.608C16.7859 13.4829 16.7589 13.3592 16.7067 13.2455C16.6544 13.1318 16.5783 13.0308 16.4833 12.9493C16.3884 12.8677 16.277 12.8077 16.1567 12.7733C16.0364 12.7388 15.9101 12.7308 15.7864 12.7497Z" fill="#FF4343"/>
<path d="M15.7864 16.458H7.82044C7.69676 16.4391 7.57046 16.4471 7.45017 16.4815C7.32989 16.516 7.21847 16.576 7.12354 16.6575C7.02862 16.739 6.95243 16.8401 6.9002 16.9538C6.84796 17.0675 6.82092 17.1911 6.82092 17.3162C6.82092 17.4413 6.84796 17.565 6.9002 17.6787C6.95243 17.7924 7.02862 17.8934 7.12354 17.9749C7.21847 18.0565 7.32989 18.1165 7.45017 18.1509C7.57046 18.1854 7.69676 18.1934 7.82044 18.1745H15.7864C15.9101 18.1934 16.0364 18.1854 16.1567 18.1509C16.277 18.1165 16.3884 18.0565 16.4833 17.9749C16.5783 17.8934 16.6544 17.7924 16.7067 17.6787C16.7589 17.565 16.7859 17.4413 16.7859 17.3162C16.7859 17.1911 16.7589 17.0675 16.7067 16.9538C16.6544 16.8401 16.5783 16.739 16.4833 16.6575C16.3884 16.576 16.277 16.516 16.1567 16.4815C16.0364 16.4471 15.9101 16.4391 15.7864 16.458Z" fill="#FF4343"/>
</g>
</svg>
