<svg width="24" height="24" viewBox="0 0 24 24" fill="none" xmlns="http://www.w3.org/2000/svg">
<mask id="mask0_17_19732" style="mask-type:luminance" maskUnits="userSpaceOnUse" x="1" y="3" width="22" height="19">
<path d="M23 3H1V21.1988H23V3Z" fill="white"/>
</mask>
<g mask="url(#mask0_17_19732)">
<path d="M21.3168 18.2V19.5156H2.68317V18.2C2.68317 17.9768 2.5945 17.7627 2.43667 17.6049C2.27884 17.4471 2.06478 17.3584 1.84158 17.3584C1.61838 17.3584 1.40432 17.4471 1.24649 17.6049C1.08867 17.7627 1 17.9768 1 18.2L1 21.195H23V18.1963C22.9928 17.9779 22.9009 17.7709 22.7439 17.619C22.5869 17.467 22.3769 17.3821 22.1584 17.3821C21.9399 17.3821 21.73 17.467 21.5729 17.619C21.4159 17.7709 21.3241 17.9779 21.3168 18.1963" fill="#90C31E"/>
<path d="M11.9991 17.6676C11.776 17.6676 11.5621 17.5789 11.4043 17.4212C11.2466 17.2635 11.158 17.0495 11.158 16.8264V3.84109C11.158 3.61789 11.2466 3.40383 11.4045 3.24601C11.5623 3.08818 11.7763 2.99951 11.9995 2.99951C12.2227 2.99951 12.4368 3.08818 12.5946 3.24601C12.7525 3.40383 12.8411 3.61789 12.8411 3.84109V16.8255C12.8409 17.0485 12.7522 17.2623 12.5945 17.42C12.4368 17.5777 12.223 17.6664 12 17.6666" fill="#90C31E"/>
<path d="M18.307 10.2017L13.24 15.2687C13.0768 15.4322 12.883 15.562 12.6696 15.6505C12.4562 15.7391 12.2274 15.7847 11.9963 15.7847C11.7653 15.7847 11.5365 15.7391 11.3231 15.6505C11.1096 15.562 10.9158 15.4322 10.7526 15.2687L5.6856 10.2017C5.60406 10.1201 5.50725 10.0554 5.40071 10.0113C5.29417 9.96717 5.17998 9.94446 5.06466 9.94446C4.94934 9.94446 4.83515 9.96717 4.72861 10.0113C4.62207 10.0554 4.52527 10.1201 4.44372 10.2017C4.36218 10.2832 4.2975 10.38 4.25337 10.4865C4.20924 10.5931 4.18652 10.7073 4.18652 10.8226C4.18652 10.9379 4.20924 11.0521 4.25337 11.1586C4.2975 11.2652 4.36218 11.362 4.44372 11.4435L10.7517 17.7515C10.9149 17.9151 11.1087 18.0448 11.3221 18.1334C11.5356 18.2219 11.7643 18.2675 11.9954 18.2675C12.2265 18.2675 12.4552 18.2219 12.6687 18.1334C12.8821 18.0448 13.0759 17.9151 13.2391 17.7515L19.5471 11.4435C19.7118 11.2788 19.8043 11.0555 19.8043 10.8226C19.8043 10.5897 19.7118 10.3663 19.5471 10.2017C19.3824 10.037 19.159 9.94446 18.9261 9.94446C18.6932 9.94446 18.4699 10.037 18.3052 10.2017" fill="#90C31E"/>
</g>
</svg>
