<svg width="24" height="24" viewBox="0 0 24 24" fill="none" xmlns="http://www.w3.org/2000/svg">
<path d="M12 5.25H6.75C6.35218 5.25 5.97064 5.40804 5.68934 5.68934C5.40804 5.97064 5.25 6.35218 5.25 6.75V17.25C5.25 17.6478 5.40804 18.0294 5.68934 18.3107C5.97064 18.592 6.35218 18.75 6.75 18.75H17.25C17.6478 18.75 18.0294 18.592 18.3107 18.3107C18.592 18.0294 18.75 17.6478 18.75 17.25V12" stroke="#1F3241" stroke-width="1.75" stroke-linecap="round" stroke-linejoin="round"/>
<path d="M16.7813 4.96892C17.0797 4.67055 17.4844 4.50293 17.9063 4.50293C18.3283 4.50293 18.733 4.67055 19.0313 4.96892C19.3297 5.26729 19.4973 5.67196 19.4973 6.09392C19.4973 6.51588 19.3297 6.92055 19.0313 7.21892L12.2716 13.9794C12.0935 14.1574 11.8735 14.2876 11.6318 14.3582L9.47707 14.9882C9.41253 15.007 9.34412 15.0081 9.279 14.9914C9.21388 14.9748 9.15444 14.9409 9.10691 14.8933C9.05937 14.8458 9.02549 14.7864 9.0088 14.7212C8.99212 14.6561 8.99325 14.5877 9.01207 14.5232L9.64207 12.3684C9.71297 12.127 9.84347 11.9072 10.0216 11.7294L16.7813 4.96892Z" stroke="#1F3241" stroke-width="1.75" stroke-linecap="round" stroke-linejoin="round"/>
</svg>
