<svg width="24" height="24" viewBox="0 0 24 24" fill="none" xmlns="http://www.w3.org/2000/svg">
<mask id="mask0_17_19724" style="mask-type:luminance" maskUnits="userSpaceOnUse" x="6" y="4" width="13" height="16">
<path d="M18.2264 4H6V20H18.2264V4Z" fill="white"/>
</mask>
<g mask="url(#mask0_17_19724)">
<path d="M16.7255 9.87062H16.5506V8.43589C16.5506 7.85336 16.4359 7.27653 16.213 6.73835C15.99 6.20016 15.6633 5.71115 15.2514 5.29924C14.8395 4.88733 14.3505 4.56059 13.8123 4.33766C13.2741 4.11474 12.6973 4 12.1147 4C11.5322 4 10.9554 4.11474 10.4172 4.33766C9.87902 4.56059 9.39001 4.88733 8.9781 5.29924C8.56619 5.71115 8.23945 6.20016 8.01652 6.73835C7.7936 7.27653 7.67886 7.85336 7.67886 8.43589V9.87062H7.50173C7.10378 9.87082 6.72216 10.0289 6.44062 10.3101C6.15908 10.5914 6.00061 10.9729 6 11.3708V18.4998C6.00061 18.8975 6.15886 19.2787 6.44007 19.5599C6.72128 19.8411 7.1025 19.9994 7.50019 20H16.7255C17.1231 19.9994 17.5044 19.8411 17.7856 19.5599C18.0668 19.2787 18.225 18.8975 18.2256 18.4998V11.3708C18.225 10.9731 18.0668 10.5919 17.7856 10.3107C17.5044 10.0295 17.1231 9.87123 16.7255 9.87062ZM9.00116 9.87062V8.43589C9.00116 8.02721 9.08165 7.62253 9.23805 7.24496C9.39444 6.86739 9.62367 6.52432 9.91265 6.23533C10.2016 5.94635 10.5447 5.71712 10.9223 5.56073C11.2998 5.40433 11.7045 5.32384 12.1132 5.32384C12.5219 5.32384 12.9266 5.40433 13.3041 5.56073C13.6817 5.71712 14.0248 5.94635 14.3138 6.23533C14.6027 6.52432 14.832 6.86739 14.9884 7.24496C15.1448 7.62253 15.2253 8.02721 15.2253 8.43589V9.87062H9.00116ZM16.9026 11.3708V18.4998C16.9024 18.5465 16.8837 18.5913 16.8507 18.6243C16.8177 18.6573 16.7729 18.676 16.7262 18.6762H7.50019C7.45348 18.676 7.40874 18.6573 7.37571 18.6243C7.34268 18.5913 7.32404 18.5465 7.32384 18.4998V11.3708C7.32404 11.3241 7.34268 11.2794 7.37571 11.2463C7.40874 11.2133 7.45348 11.1947 7.50019 11.1945H16.7255C16.7722 11.1947 16.8169 11.2133 16.8499 11.2463C16.883 11.2794 16.9024 11.3241 16.9026 11.3708Z" fill="#6B7280"/>
<path d="M12.1131 12.3866C11.7141 12.3861 11.3276 12.5251 11.0204 12.7796C10.7133 13.0341 10.5048 13.3881 10.4312 13.7802C10.3576 14.1723 10.4235 14.5777 10.6174 14.9263C10.8114 15.2749 11.1212 15.5447 11.4931 15.6889V16.8217C11.4931 16.9973 11.5629 17.1656 11.687 17.2898C11.8111 17.4139 11.9795 17.4836 12.155 17.4836C12.3306 17.4836 12.499 17.4139 12.6231 17.2898C12.7472 17.1656 12.817 16.9973 12.817 16.8217V15.6542C13.1731 15.4932 13.4634 15.2151 13.6394 14.8661C13.8154 14.5171 13.8665 14.1183 13.7842 13.7362C13.7019 13.3541 13.4911 13.0118 13.1871 12.7662C12.883 12.5206 12.5039 12.3866 12.1131 12.3866ZM12.4981 14.097C12.4981 14.1732 12.4755 14.2476 12.4332 14.311C12.3909 14.3743 12.3308 14.4236 12.2604 14.4528C12.1901 14.4819 12.1126 14.4896 12.0379 14.4747C11.9633 14.4598 11.8946 14.4232 11.8408 14.3693C11.7869 14.3155 11.7503 14.2469 11.7354 14.1722C11.7206 14.0975 11.7282 14.02 11.7573 13.9497C11.7865 13.8793 11.8358 13.8192 11.8991 13.7769C11.9625 13.7346 12.0369 13.712 12.1131 13.712C12.2152 13.712 12.3131 13.7525 12.3853 13.8248C12.4576 13.897 12.4981 13.9949 12.4981 14.097Z" fill="#6B7280"/>
</g>
</svg>
