<svg width="24" height="24" viewBox="0 0 24 24" fill="none" xmlns="http://www.w3.org/2000/svg">
<path d="M6.457 6H18.114C18.5001 6.00106 18.8701 6.1549 19.1431 6.42791C19.4161 6.70092 19.5699 7.0709 19.571 7.457V16.2C19.5699 16.5861 19.4161 16.9561 19.1431 17.2291C18.8701 17.5021 18.5001 17.6559 18.114 17.657H6.457C6.0709 17.6559 5.70092 17.5021 5.42791 17.2291C5.1549 16.9561 5.00106 16.5861 5 16.2V7.457C5.00106 7.0709 5.1549 6.70092 5.42791 6.42791C5.70092 6.1549 6.0709 6.00106 6.457 6Z" stroke="#6B7280" stroke-width="1.2" stroke-linecap="round" stroke-linejoin="round"/>
<path d="M19.571 7.45703L12.285 12.557L5 7.45703" stroke="#6B7280" stroke-width="1.2" stroke-linecap="round" stroke-linejoin="round"/>
</svg>
