<svg width="24" height="24" viewBox="0 0 24 24" fill="none" xmlns="http://www.w3.org/2000/svg">
<path d="M10.4774 7.21588L7.91443 4.25688C7.83901 4.17583 7.74769 4.1112 7.64618 4.067C7.54467 4.02281 7.43515 4 7.32443 4C7.21372 4 7.1042 4.02281 7.00269 4.067C6.90118 4.1112 6.80986 4.17583 6.73443 4.25688L4.62543 6.37288C4.32186 6.66466 4.11616 7.04335 4.03665 7.45685C3.95714 7.87034 4.00772 8.29831 4.18143 8.68188C6.34979 13.1707 9.97035 16.7959 14.4564 18.9699C14.8396 19.1434 15.2672 19.1937 15.6802 19.114C16.0932 19.0343 16.4713 18.8285 16.7624 18.5249L18.8894 16.3939C18.971 16.3182 19.0361 16.2266 19.0806 16.1246C19.1251 16.0227 19.1481 15.9126 19.1481 15.8014C19.1481 15.6901 19.1251 15.5801 19.0806 15.4781C19.0361 15.3762 18.971 15.2845 18.8894 15.2089L15.9194 12.6599C15.7593 12.5332 15.5575 12.4711 15.3539 12.4859C15.1502 12.5007 14.9595 12.5913 14.8194 12.7399L13.7864 13.7749C13.7336 13.8304 13.6639 13.867 13.5882 13.8791C13.5126 13.8912 13.435 13.8781 13.3674 13.8419C11.6771 12.8696 10.2748 11.4666 9.30343 9.77588C9.2671 9.70819 9.25397 9.63044 9.26608 9.55457C9.27818 9.47871 9.31484 9.4089 9.37043 9.35588L10.3964 8.32488C10.5467 8.18356 10.6381 7.99074 10.6524 7.78496C10.6666 7.57918 10.6027 7.37559 10.4734 7.21488L10.4774 7.21588Z" stroke="#6B7280" stroke-width="1.2" stroke-linecap="round" stroke-linejoin="round"/>
</svg>
