<svg width="24" height="24" viewBox="0 0 24 24" fill="none" xmlns="http://www.w3.org/2000/svg">
<path d="M12.1885 6C12.3935 6 12.5901 6.08144 12.7351 6.22641C12.8801 6.37137 12.9615 6.56799 12.9615 6.773V11.414H17.6005C17.8056 11.414 18.0024 11.4955 18.1474 11.6406C18.2925 11.7856 18.374 11.9824 18.374 12.1875C18.374 12.3926 18.2925 12.5894 18.1474 12.7344C18.0024 12.8795 17.8056 12.961 17.6005 12.961H12.9615V17.6C12.9615 17.8051 12.88 18.0019 12.7349 18.1469C12.5899 18.292 12.3931 18.3735 12.188 18.3735C11.9829 18.3735 11.7861 18.292 11.6411 18.1469C11.496 18.0019 11.4145 17.8051 11.4145 17.6V12.961H6.7735C6.56835 12.961 6.37161 12.8795 6.22655 12.7344C6.08149 12.5894 6 12.3926 6 12.1875C6 11.9824 6.08149 11.7856 6.22655 11.6406C6.37161 11.4955 6.56835 11.414 6.7735 11.414H11.4145V6.773C11.4145 6.6714 11.4345 6.57081 11.4734 6.47696C11.5123 6.38311 11.5694 6.29784 11.6413 6.22605C11.7131 6.15426 11.7985 6.09734 11.8924 6.05856C11.9863 6.01977 12.0869 5.99987 12.1885 6Z" fill="#1A1A1A"/>
</svg>
