<svg width="24" height="24" viewBox="0 0 24 24" fill="none" xmlns="http://www.w3.org/2000/svg">
<path d="M5.56555 4.04224C5.49456 4.00566 5.41477 3.9925 5.33659 4.00449C5.2584 4.01648 5.18546 4.05305 5.12726 4.10944C5.06906 4.16583 5.02831 4.23942 5.01033 4.32061C4.99234 4.4018 4.99794 4.48683 5.02642 4.56461L8.75003 10.9951C8.88238 11.3702 8.88238 11.7654 8.75003 12.1405L5.02721 18.4363C4.99888 18.5139 4.99334 18.5988 5.01132 18.6799C5.0293 18.7609 5.06996 18.8344 5.12802 18.8907C5.18608 18.9471 5.25885 18.9837 5.33688 18.9958C5.41491 19.0079 5.49458 18.9949 5.56555 18.9586L19.7741 11.877C19.8416 11.8433 19.8988 11.79 19.9388 11.7233C19.9788 11.6566 20 11.5793 20 11.5004C20 11.4215 19.9788 11.3442 19.9388 11.2776C19.8988 11.2109 19.8416 11.1576 19.7741 11.1239L5.56555 4.04224Z" fill="#90C31E" stroke="#90C31E" stroke-width="1.75" stroke-linecap="round" stroke-linejoin="round"/>
</svg>
