<svg width="32" height="32" viewBox="0 0 32 32" fill="none" xmlns="http://www.w3.org/2000/svg">
<g clip-path="url(#clip0_295_3417)">
<rect width="32" height="32" rx="8" fill="#90C31E" fill-opacity="0.1"/>
<path d="M9.56555 9.04236C9.49456 9.00578 9.41477 8.99263 9.33659 9.00461C9.2584 9.0166 9.18546 9.05317 9.12726 9.10956C9.06906 9.16595 9.02831 9.23954 9.01033 9.32073C8.99234 9.40192 8.99794 9.48695 9.02642 9.56473L12.75 15.9952C12.8824 16.3703 12.8824 16.7656 12.75 17.1407L9.02721 23.4364C8.99888 23.5141 8.99334 23.5989 9.01132 23.68C9.0293 23.761 9.06996 23.8345 9.12802 23.8908C9.18608 23.9472 9.25885 23.9838 9.33688 23.9959C9.41491 24.008 9.49458 23.9951 9.56555 23.9587L23.7741 16.8771C23.8416 16.8434 23.8988 16.7901 23.9388 16.7234C23.9788 16.6568 24 16.5795 24 16.5006C24 16.4216 23.9788 16.3444 23.9388 16.2777C23.8988 16.211 23.8416 16.1577 23.7741 16.124L9.56555 9.04236Z" fill="#90C31E" stroke="#90C31E" stroke-width="1.75" stroke-linecap="round" stroke-linejoin="round"/>
</g>
<defs>
<clipPath id="clip0_295_3417">
<rect width="32" height="32" rx="8" fill="white"/>
</clipPath>
</defs>
</svg>
