<svg width="24" height="24" viewBox="0 0 24 24" fill="none" xmlns="http://www.w3.org/2000/svg">
<path d="M15.4949 4H8.50514C6.01702 4 4 6.01702 4 8.50514V15.4949C4 17.983 6.01702 20 8.50514 20H15.4949C17.983 20 20 17.983 20 15.4949V8.50514C20 6.01702 17.983 4 15.4949 4Z" fill="white"/>
<path d="M15.4948 4.56311H8.50511C6.328 4.56311 4.56311 6.328 4.56311 8.50511V15.4948C4.56311 17.6719 6.328 19.4368 8.50511 19.4368H15.4948C17.6719 19.4368 19.4368 17.6719 19.4368 15.4948V8.50511C19.4368 6.328 17.6719 4.56311 15.4948 4.56311Z" stroke="#E0E0E0"/>
</svg>
