<svg width="24" height="24" viewBox="0 0 24 24" fill="none" xmlns="http://www.w3.org/2000/svg">
<g clip-path="url(#clip0_601_9134)">
<path d="M15 4.5H16.75C17.2141 4.5 17.6592 4.68437 17.9874 5.01256C18.3156 5.34075 18.5 5.78587 18.5 6.25V6.978" stroke="#1A1A1A" stroke-width="1.256" stroke-linecap="round" stroke-linejoin="round"/>
<path d="M8 4.5H6.25C5.78587 4.5 5.34075 4.68437 5.01256 5.01256C4.68437 5.34075 4.5 5.78587 4.5 6.25V18.5C4.5 18.9641 4.68437 19.4092 5.01256 19.7374C5.34075 20.0656 5.78587 20.25 6.25 20.25H8" stroke="#1A1A1A" stroke-width="1.25" stroke-linecap="round" stroke-linejoin="round"/>
<path d="M14.125 2.75H8.875C8.39175 2.75 8 3.14175 8 3.625V5.375C8 5.85825 8.39175 6.25 8.875 6.25H14.125C14.6082 6.25 15 5.85825 15 5.375V3.625C15 3.14175 14.6082 2.75 14.125 2.75Z" stroke="#1A1A1A" stroke-width="1.25" stroke-linecap="round" stroke-linejoin="round"/>
<path d="M17.8428 18.5685C17.2655 18.5685 16.5307 18.5685 15.5923 18.5628C13.5402 18.556 11.4972 18.5417 11.4972 18.5417C11.3578 18.5407 11.2244 18.4846 11.1262 18.3856C11.0279 18.2866 10.9728 18.1528 10.9728 18.0134V13.0464C10.966 12.4321 11.0811 11.8226 11.3115 11.2531C11.5419 10.6836 11.8829 10.1655 12.3149 9.7287C12.7469 9.29191 13.2612 8.94515 13.8281 8.70849C14.395 8.47183 15.0033 8.34998 15.6176 8.34998C16.2319 8.34998 16.8401 8.47183 17.407 8.70849C17.9739 8.94515 18.4883 9.29191 18.9202 9.7287C19.3522 10.1655 19.6933 10.6836 19.9236 11.2531C20.154 11.8226 20.2691 12.4321 20.2623 13.0464V18.0134C20.2624 18.1532 20.2069 18.2874 20.1082 18.3865C19.9592 18.5355 19.9268 18.5685 17.8451 18.5685M12.0267 17.489C14.5918 17.5055 17.9719 17.5185 19.2033 17.5043V13.0464C19.2118 12.5698 19.1252 12.0963 18.9487 11.6535C18.7722 11.2107 18.5092 10.8076 18.1752 10.4675C17.8412 10.1275 17.4427 9.85737 17.0032 9.673C16.5636 9.48862 16.0917 9.39366 15.615 9.39366C15.1383 9.39366 14.6664 9.48862 14.2269 9.673C13.7873 9.85737 13.3889 10.1275 13.0548 10.4675C12.7208 10.8076 12.4578 11.2107 12.2813 11.6535C12.1048 12.0963 12.0182 12.5698 12.0267 13.0464V17.489Z" fill="#1A1A1A"/>
<path d="M20.9624 21.0363H10.2681C10.0982 21.0363 9.93088 20.9953 9.78023 20.9168C9.62958 20.8383 9.50008 20.7246 9.40269 20.5854C9.3053 20.4462 9.24291 20.2856 9.22079 20.1172C9.19867 19.9488 9.21748 19.7775 9.27563 19.6179L9.50313 18.9894C9.66525 18.5484 9.95875 18.1678 10.344 17.8989C10.7293 17.63 11.1878 17.4857 11.6576 17.4856H19.5753C20.0442 17.4868 20.5015 17.6316 20.8857 17.9004C21.27 18.1693 21.5627 18.5493 21.7246 18.9894L21.9521 19.6179C22.0104 19.7775 22.0293 19.9488 22.0072 20.1173C21.9852 20.2858 21.9228 20.4464 21.8254 20.5857C21.728 20.7249 21.5984 20.8385 21.4477 20.917C21.297 20.9955 21.1295 21.0364 20.9596 21.0363M11.6576 18.5418C11.4049 18.5423 11.1585 18.6202 10.9515 18.765C10.7445 18.9098 10.5868 19.1146 10.4996 19.3517L10.2721 19.9802H20.9642L20.7327 19.3517C20.6455 19.1146 20.4879 18.91 20.281 18.7652C20.0741 18.6204 19.8278 18.5424 19.5753 18.5418H11.6576Z" fill="#1A1A1A"/>
<path d="M17.9219 13.3996C17.8524 13.3997 17.7835 13.3862 17.7192 13.3596C17.655 13.3331 17.5965 13.2942 17.5474 13.245C17.4982 13.1959 17.4592 13.1375 17.4326 13.0733C17.406 13.009 17.3923 12.9402 17.3924 12.8707C17.3945 12.4693 17.2374 12.0834 16.9555 11.7977C16.6736 11.512 16.29 11.3497 15.8886 11.3464C15.8178 11.3487 15.7472 11.3368 15.6811 11.3113C15.615 11.2858 15.5547 11.2473 15.5038 11.198C15.4529 11.1487 15.4124 11.0897 15.3848 11.0245C15.3571 10.9593 15.3429 10.8891 15.3429 10.8183C15.3429 10.7474 15.3571 10.6773 15.3848 10.6121C15.4124 10.5469 15.4529 10.4879 15.5038 10.4386C15.5547 10.3893 15.615 10.3508 15.6811 10.3253C15.7472 10.2998 15.8178 10.2879 15.8886 10.2902C16.57 10.294 17.2221 10.5678 17.7019 11.0516C18.1816 11.5355 18.45 12.1898 18.448 12.8712C18.448 13.0114 18.3923 13.1457 18.2932 13.2448C18.1942 13.3439 18.0598 13.3996 17.9196 13.3996" fill="#1A1A1A"/>
<path d="M8.34998 9.40002V12.9" stroke="#1A1A1A" stroke-width="1.5" stroke-linecap="round" stroke-linejoin="round"/>
<path d="M8.34998 16.75H8.35831" stroke="#1A1A1A" stroke-width="1.5" stroke-linecap="round" stroke-linejoin="round"/>
</g>
<defs>
<clipPath id="clip0_601_9134">
<rect width="21" height="21" fill="white" transform="translate(1 1)"/>
</clipPath>
</defs>
</svg>
