<svg width="24" height="24" viewBox="0 0 24 24" fill="none" xmlns="http://www.w3.org/2000/svg">
<mask id="mask0_37_673" style="mask-type:luminance" maskUnits="userSpaceOnUse" x="4" y="3" width="17" height="19">
<path d="M21 3H4V21.5029H21V3Z" fill="white"/>
</mask>
<g mask="url(#mask0_37_673)">
<path d="M11.3679 13.2241H8.6551C8.48514 13.2293 8.32387 13.3004 8.20548 13.4225C8.08709 13.5445 8.02087 13.7079 8.02087 13.8779C8.02087 14.0479 8.08709 14.2113 8.20548 14.3333C8.32387 14.4554 8.48514 14.5265 8.6551 14.5317H11.3679C11.5378 14.5265 11.6991 14.4554 11.8175 14.3333C11.9359 14.2113 12.0021 14.0479 12.0021 13.8779C12.0021 13.7079 11.9359 13.5445 11.8175 13.4225C11.6991 13.3004 11.5378 13.2293 11.3679 13.2241Z" fill="#1A1A1A"/>
<path d="M8.60688 10.061C8.43692 10.0662 8.27566 10.1373 8.15726 10.2594C8.03887 10.3814 7.97266 10.5448 7.97266 10.7148C7.97266 10.8848 8.03887 11.0482 8.15726 11.1702C8.27566 11.2923 8.43692 11.3634 8.60688 11.3686H16.3925C16.5625 11.3634 16.7237 11.2923 16.8421 11.1702C16.9605 11.0482 17.0267 10.8848 17.0267 10.7148C17.0267 10.5448 16.9605 10.3814 16.8421 10.2594C16.7237 10.1373 16.5625 10.0662 16.3925 10.061H8.60688Z" fill="#1A1A1A"/>
<path d="M17.7061 4.50534H16.8181C16.8181 4.51318 16.8181 4.52041 16.8181 4.52825V5.81048H17.7049C18.2313 5.81144 18.7358 6.02096 19.108 6.39315C19.4802 6.76534 19.6897 7.26987 19.6906 7.79623V18.209C19.6897 18.7354 19.4802 19.2399 19.108 19.6121C18.7358 19.9843 18.2313 20.1938 17.7049 20.1948H7.2933C6.76694 20.1938 6.26241 19.9843 5.89022 19.6121C5.51803 19.2399 5.30851 18.7354 5.30755 18.209V7.79623C5.30851 7.26987 5.51803 6.76534 5.89022 6.39315C6.26241 6.02096 6.76694 5.81144 7.2933 5.81048H8.18067V4.52584C8.18067 4.518 8.18067 4.51077 8.18067 4.50293H7.2933C6.42015 4.50389 5.58305 4.85117 4.96564 5.46857C4.34824 6.08598 4.00096 6.92308 4 7.79623V18.209C4.00016 19.0827 4.34709 19.9206 4.96458 20.5386C5.58207 21.1567 6.41963 21.5044 7.2933 21.5053H17.7061C18.5799 21.5045 19.4176 21.1569 20.0352 20.5388C20.6528 19.9208 20.9998 19.0828 21 18.209V7.79623C20.9984 6.9234 20.6508 6.08682 20.0333 5.46992C19.4158 4.85301 18.5789 4.50614 17.7061 4.50534Z" fill="#1A1A1A"/>
<path d="M9.70585 4.30755H15.2935C15.347 4.30791 15.3984 4.32808 15.4378 4.36416C15.4772 4.40024 15.5019 4.44967 15.5069 4.50287H16.8181C16.8118 4.1025 16.6485 3.72063 16.3633 3.43953C16.0781 3.15843 15.694 3.00058 15.2935 3H9.70585C9.30543 3.00058 8.92126 3.15843 8.63609 3.43953C8.35093 3.72063 8.1876 4.1025 8.18127 4.50287H9.49244C9.49752 4.44967 9.52215 4.40024 9.56157 4.36416C9.601 4.32808 9.65241 4.30791 9.70585 4.30755Z" fill="#1A1A1A"/>
<path d="M15.5118 6.04738C15.5118 6.10525 15.4888 6.16076 15.4478 6.20169C15.4069 6.24261 15.3514 6.2656 15.2935 6.2656H9.70583C9.64796 6.2656 9.59245 6.24261 9.55152 6.20169C9.5106 6.16076 9.48761 6.10525 9.48761 6.04738V5.81348H8.18005V6.05039C8.18053 6.45491 8.34144 6.84272 8.62747 7.12875C8.91351 7.41479 9.30132 7.57569 9.70583 7.57617H15.2935C15.698 7.57569 16.0859 7.41479 16.3719 7.12875C16.6579 6.84272 16.8188 6.45491 16.8193 6.05039V5.81348H15.5118V6.04738Z" fill="#1A1A1A"/>
<path d="M15.5118 4.52584V5.81048H16.8193V4.52584C16.8193 4.518 16.8193 4.51077 16.8193 4.50293H15.5082C15.5102 4.51046 15.5118 4.51811 15.513 4.52584" fill="#1A1A1A"/>
<path d="M8.18066 5.81048H9.48822V4.52584C9.48937 4.51811 9.49098 4.51046 9.49304 4.50293H8.18187C8.18187 4.51077 8.18187 4.518 8.18187 4.52584L8.18066 5.81048Z" fill="#1A1A1A"/>
</g>
</svg>
