<svg width="24" height="24" viewBox="0 0 24 24" fill="none" xmlns="http://www.w3.org/2000/svg">
<mask id="mask0_37_674" style="mask-type:luminance" maskUnits="userSpaceOnUse" x="4" y="2" width="17" height="20">
<path d="M21 2H4V21.6127H21V2Z" fill="white"/>
</mask>
<g mask="url(#mask0_37_674)">
<path d="M11.433 21.6127C11.3471 21.6128 11.262 21.5959 11.1826 21.5631C11.1032 21.5302 11.0311 21.482 10.9703 21.4213C10.9095 21.3605 10.8614 21.2884 10.8285 21.209C10.7957 21.1296 10.7788 21.0445 10.7789 20.9586V18.1253H7.26918C6.40285 18.1243 5.57224 17.7799 4.95943 17.1676C4.34662 16.5552 4.0016 15.7248 4 14.8585V5.26918C4.00096 4.40244 4.3457 3.57146 4.95858 2.95858C5.57146 2.3457 6.40244 2.00096 7.26918 2L17.7308 2C18.5976 2.00096 19.4285 2.3457 20.0414 2.95858C20.6543 3.57146 20.999 4.40244 21 5.26918V14.8585C20.999 15.7253 20.6543 16.5562 20.0414 17.1691C19.4285 17.782 18.5976 18.1267 17.7308 18.1277H14.6949L11.9315 21.383C11.8701 21.4554 11.7938 21.5135 11.7077 21.5533C11.6216 21.5932 11.5279 21.6139 11.433 21.6139M7.26918 3.30755C6.74912 3.30819 6.25055 3.51507 5.88281 3.88281C5.51507 4.25055 5.30819 4.74912 5.30755 5.26918V14.8585C5.30819 15.3786 5.51507 15.8771 5.88281 16.2449C6.25055 16.6126 6.74912 16.8195 7.26918 16.8201H11.433C11.5189 16.8201 11.6039 16.8371 11.6833 16.8699C11.7626 16.9028 11.8347 16.951 11.8955 17.0117C11.9562 17.0725 12.0044 17.1446 12.0373 17.2239C12.0701 17.3033 12.0871 17.3883 12.0871 17.4742V19.1809L13.8956 17.0528C13.9569 16.9805 14.0333 16.9223 14.1194 16.8825C14.2055 16.8426 14.2992 16.8219 14.3941 16.8219H17.7326C18.2526 16.8207 18.7508 16.6133 19.1181 16.2452C19.4854 15.8771 19.6917 15.3785 19.6918 14.8585V5.26918C19.6912 4.74912 19.4843 4.25055 19.1166 3.88281C18.7489 3.51507 18.2503 3.30819 17.7302 3.30755H7.26918Z" fill="#1A1A1A"/>
<path d="M11.3679 11.3199H8.6551C8.48514 11.3147 8.32387 11.2436 8.20548 11.1215C8.08709 10.9995 8.02087 10.8361 8.02087 10.6661C8.02087 10.4961 8.08709 10.3327 8.20548 10.2107C8.32387 10.0886 8.48514 10.0175 8.6551 10.0123H11.3679C11.5378 10.0175 11.6991 10.0886 11.8175 10.2107C11.9359 10.3327 12.0021 10.4961 12.0021 10.6661C12.0021 10.8361 11.9359 10.9995 11.8175 11.1215C11.6991 11.2436 11.5378 11.3147 11.3679 11.3199Z" fill="#1A1A1A"/>
<path d="M16.3925 8.15741H8.60688C8.43692 8.15225 8.27566 8.0811 8.15726 7.95906C8.03887 7.83702 7.97266 7.67366 7.97266 7.50363C7.97266 7.3336 8.03887 7.17024 8.15726 7.0482C8.27566 6.92616 8.43692 6.85501 8.60688 6.84985H16.3925C16.5625 6.85501 16.7237 6.92616 16.8421 7.0482C16.9605 7.17024 17.0267 7.3336 17.0267 7.50363C17.0267 7.67366 16.9605 7.83702 16.8421 7.95906C16.7237 8.0811 16.5625 8.15225 16.3925 8.15741Z" fill="#1A1A1A"/>
</g>
</svg>
